<svg width="90" height="90" viewBox="0 0 90 90" fill="none" xmlns="http://www.w3.org/2000/svg">
<rect width="90" height="90" rx="4" fill="#134C6E"/>
<path d="M39.7787 45.9528C41.4868 47.2639 43.5016 47.8975 45.5004 47.8959V53.136C42.3871 53.1384 39.2485 52.1516 36.5879 50.1093C36.0752 49.7157 35.5957 49.2948 35.1499 48.8502L38.8556 45.1446C39.1417 45.4299 39.4495 45.7001 39.7787 45.9528ZM54.8923 38.4543H54.8957C54.8824 36.037 53.9403 33.6469 52.1446 31.8556L55.8502 28.1499C58.6537 30.9466 60.1216 34.6802 60.1361 38.4543H60.1376V38.4997H54.8923V38.4543ZM51.2208 31.0467C49.5131 29.7359 47.4988 29.1024 45.5004 29.1036V23.8633C48.6133 23.8612 51.7512 24.8481 54.4113 26.89C54.9244 27.2838 55.4042 27.705 55.8502 28.1499L52.1446 31.8556C51.8583 31.5699 51.5502 31.2996 51.2208 31.0467ZM45.5004 23.8633V29.1036C43.0674 29.1052 40.6584 30.0478 38.8556 31.8549C38.57 32.1412 38.2996 32.4493 38.0467 32.7787C36.7357 34.4865 36.1021 36.5012 36.1036 38.4997C36.1053 40.9327 37.0481 43.3419 38.8556 45.1446L35.1499 48.8502C32.3347 46.0422 30.866 42.2896 30.8633 38.4997C30.8611 35.3866 31.8479 32.2484 33.8901 29.5881C34.2839 29.075 34.7051 28.5952 35.1499 28.1492C37.958 25.3342 41.7107 23.8658 45.5004 23.8633ZM52.9528 44.2208C54.2053 42.589 54.8395 40.6773 54.8923 38.7671V38.4997H60.1376V50.6654H60.1361C60.117 51.3081 59.8666 51.9308 59.3979 52.3972C59.3319 52.4629 59.2615 52.5255 59.1868 52.5846C58.0713 53.4677 56.4186 53.2384 55.4954 52.0722C55.1599 51.6484 54.9669 51.159 54.9108 50.6654H54.8923V49.7278C52.218 51.9693 48.874 53.1334 45.5004 53.136V47.8959C47.9333 47.8939 50.3422 46.951 52.1446 45.1439C52.43 44.8577 52.7001 44.55 52.9528 44.2208Z" fill="white"/>
<path d="M39.7772 45.9527C41.4852 47.2638 43.5001 47.8974 45.4989 47.8958V53.136C42.3856 53.1384 39.247 52.1515 36.5864 50.1093C36.0736 49.7156 35.5942 49.2948 35.1484 48.8501L38.854 45.1445C39.1402 45.4299 39.448 45.7001 39.7772 45.9527Z" fill="white"/>
<path d="M54.8922 38.4547H54.8957C54.8824 36.0374 53.9403 33.6473 52.1445 31.856L55.8501 28.1504C58.6536 30.947 60.1215 34.6806 60.136 38.4547H60.1376V38.5001H54.8922V38.4547Z" fill="white"/>
<path d="M51.2204 31.0467C49.5127 29.7359 47.4983 29.1024 45.5 29.1036V23.8633C48.6129 23.8612 51.7508 24.8481 54.4109 26.89C54.924 27.2838 55.4038 27.705 55.8497 28.1499L52.1441 31.8556C51.8578 31.5699 51.5498 31.2996 51.2204 31.0467Z" fill="white"/>
<path d="M45.5004 23.8633V29.1036C43.0674 29.1052 40.6584 30.0478 38.8556 31.8549C38.57 32.1412 38.2996 32.4493 38.0467 32.7787C36.7357 34.4865 36.1021 36.5012 36.1036 38.4997C36.1053 40.9327 37.0481 43.3419 38.8556 45.1446L35.1499 48.8502C32.3347 46.0422 30.866 42.2896 30.8633 38.4997C30.8611 35.3866 31.8479 32.2484 33.8901 29.5881C34.2839 29.0749 34.7051 28.5952 35.1499 28.1492C37.958 25.3342 41.7107 23.8658 45.5004 23.8633Z" fill="white"/>
<path d="M52.9523 44.2211C54.2048 42.5894 54.839 40.6776 54.8918 38.7674V38.5H60.1372V50.6657H60.1356C60.1166 51.3084 59.8662 51.9311 59.3975 52.3975C59.3314 52.4632 59.2611 52.5258 59.1864 52.5849C58.0709 53.468 56.4181 53.2387 55.4949 52.0726C55.1594 51.6487 54.9665 51.1593 54.9104 50.6657H54.8918V49.7282C52.2175 51.9697 48.8735 53.1337 45.5 53.1363V47.8962C47.9329 47.8943 50.3417 46.9514 52.1442 45.1442C52.4295 44.858 52.6997 44.5503 52.9523 44.2211Z" fill="white"/>
<path d="M36.8252 74H38.1932L34.7612 65.6H33.6092L30.1772 74H31.5452L32.3492 71.912H36.0212L36.8252 74ZM32.7932 70.76L34.1852 67.16L35.5772 70.76H32.7932ZM40.206 65.6H39.03V74H40.206V65.6ZM42.9365 65.6H41.7605V74H42.9365V65.6ZM46.3989 74.18C47.2989 74.18 47.8269 73.712 48.1029 73.16H48.1269V74H49.3029V68.456H48.1269V71.108C48.1269 72.512 47.5509 73.04 46.7349 73.04C46.0269 73.04 45.5709 72.608 45.5709 71.696V68.456H44.3709V71.816C44.3709 73.52 45.3069 74.18 46.3989 74.18ZM53.8673 68.288H53.7833C52.8473 68.288 52.2113 68.84 51.9473 69.668H51.9233V68.456H50.7473V74H51.9233V71.54C51.9233 70.22 52.5353 69.668 53.6873 69.668H53.8673V68.288ZM56.8756 68.276C55.0996 68.276 54.0436 69.56 54.0436 71.24C54.0436 72.992 55.1716 74.18 56.9356 74.18C58.3036 74.18 59.0356 73.424 59.4436 72.86L58.6156 72.08C58.3396 72.452 57.8236 73.052 56.9116 73.052C55.9636 73.052 55.2796 72.404 55.2316 71.42H59.5276V71.228C59.5276 69.44 58.5676 68.276 56.8756 68.276ZM56.8036 69.356C57.6436 69.356 58.2076 69.8 58.2556 70.568H55.2916C55.4356 69.764 56.0116 69.356 56.8036 69.356Z" fill="white"/>
</svg>
