<svg width="90" height="90" viewBox="0 0 90 90" fill="none" xmlns="http://www.w3.org/2000/svg">
<rect width="90" height="90" rx="4" fill="#134C6E"/>
<path fill-rule="evenodd" clip-rule="evenodd" d="M47.7871 48.7103C48.0821 49.3292 48.4583 49.9019 48.9 50.4116C51.2364 53.1087 55.566 54.2542 59.8531 51.0861C60.8012 50.3853 61.0023 49.0466 60.3011 48.0983C59.6007 47.1501 58.2621 46.9491 57.314 47.6499C55.2884 49.1467 53.2328 48.8884 52.1293 47.6142C51.0234 46.337 51.055 44.2558 52.8203 42.4534C53.0246 42.2454 53.1768 42.0061 53.2786 41.7514C53.3803 41.4968 53.4347 41.2183 53.4308 40.9272C53.4261 40.6393 53.3653 40.3654 53.2581 40.1162C53.1516 39.8669 52.9954 39.6339 52.7895 39.4324C52.5813 39.2286 52.3423 39.076 52.0875 38.9745C51.8327 38.8725 51.5543 38.8182 51.2632 38.8224L41.3001 38.9689C40.1209 38.9863 39.1775 39.9575 39.1948 41.1364C39.2122 42.3153 40.184 43.2584 41.3624 43.2411L47.2144 43.1551C44.7534 46.1749 41.9185 48.0353 39.3258 48.5474C37.9076 48.8276 36.5855 48.6895 35.5545 47.9944C34.3079 47.1541 33.6148 45.7055 33.3695 44.0138C32.9281 40.9693 33.9289 37.1886 36.3465 33.8247C38.8533 30.3359 42.1386 28.1635 45.0807 27.4846C46.6583 27.1205 48.1136 27.1653 49.1414 27.8592C50.5738 28.8261 51.0968 30.5663 50.8262 32.5173C50.6645 33.6852 51.4817 34.7647 52.6491 34.9264C53.8173 35.0881 54.8971 34.2712 55.0588 33.1033C55.5747 29.3746 54.2693 26.166 51.5322 24.3181C49.6478 23.0456 47.0133 22.6537 44.12 23.3214C40.3567 24.1899 36.0831 26.8691 32.8765 31.3315C29.7317 35.7079 28.5669 40.6658 29.1412 44.6269C29.5731 47.606 30.9708 50.057 33.1659 51.537C35.0836 52.83 37.5155 53.2602 40.154 52.739C42.6079 52.2543 45.2787 50.9154 47.7871 48.7103Z" fill="white"/>
<path d="M26.6299 74H27.9979L24.5659 65.6H23.4139L19.9819 74H21.3499L22.1539 71.912H25.8259L26.6299 74ZM22.5979 70.76L23.9899 67.16L25.3819 70.76H22.5979ZM30.0107 65.6H28.8347V74H30.0107V65.6ZM32.7412 65.6H31.5652V74H32.7412V65.6ZM36.2036 74.18C37.1036 74.18 37.6316 73.712 37.9076 73.16H37.9316V74H39.1076V68.456H37.9316V71.108C37.9316 72.512 37.3556 73.04 36.5396 73.04C35.8316 73.04 35.3756 72.608 35.3756 71.696V68.456H34.1756V71.816C34.1756 73.52 35.1116 74.18 36.2036 74.18ZM43.672 68.288H43.588C42.652 68.288 42.016 68.84 41.752 69.668H41.728V68.456H40.552V74H41.728V71.54C41.728 70.22 42.34 69.668 43.492 69.668H43.672V68.288ZM46.6803 68.276C44.9043 68.276 43.8483 69.56 43.8483 71.24C43.8483 72.992 44.9763 74.18 46.7403 74.18C48.1083 74.18 48.8403 73.424 49.2483 72.86L48.4203 72.08C48.1443 72.452 47.6283 73.052 46.7163 73.052C45.7683 73.052 45.0843 72.404 45.0363 71.42H49.3323V71.228C49.3323 69.44 48.3723 68.276 46.6803 68.276ZM46.6083 69.356C47.4483 69.356 48.0123 69.8 48.0603 70.568H45.0963C45.2403 69.764 45.8163 69.356 46.6083 69.356ZM53.3595 70.244H50.2275V71.396H53.3595V70.244ZM58.9945 69.356V70.532H61.6345C61.5385 71.648 60.6265 72.908 58.7905 72.908C56.9185 72.908 55.6825 71.612 55.6825 69.812C55.6825 68.036 56.8705 66.692 58.7065 66.692C59.7625 66.692 60.6025 67.1 61.1425 67.592L61.9945 66.548C61.2745 65.936 60.1945 65.42 58.7665 65.42C56.1145 65.42 54.3145 67.244 54.3145 69.824C54.3145 72.476 56.2225 74.18 58.7545 74.18C61.6105 74.18 62.9785 72.02 62.9785 69.86V69.356H58.9945ZM66.6773 68.276C64.9373 68.276 63.6413 69.524 63.6413 71.228C63.6413 72.932 64.9373 74.18 66.6773 74.18C68.4173 74.18 69.7133 72.932 69.7133 71.228C69.7133 69.524 68.4173 68.276 66.6773 68.276ZM66.6773 69.428C67.7333 69.428 68.4653 70.136 68.4653 71.228C68.4653 72.32 67.7333 73.028 66.6773 73.028C65.6213 73.028 64.8893 72.32 64.8893 71.228C64.8893 70.136 65.6213 69.428 66.6773 69.428Z" fill="white"/>
</svg>
